# This file uses centimeters as units for non-parametric coordinates.

mtllib target.mtl
g default
v -1.300000 0.000000 0.050000
v 1.300000 0.000000 0.050000
v -1.300000 5.000000 0.050000
v 1.300000 5.000000 0.050000
v -1.300000 5.000000 -0.050000
v 1.300000 5.000000 -0.050000
v -1.300000 0.000000 -0.050000
v 1.300000 0.000000 -0.050000
vt 0.001992 0.001822
vt 0.455562 0.001822
vt 0.455562 0.874072
vt 0.001992 0.874072
vt 0.972765 0.455392
vt 0.972765 0.001822
vt 0.990210 0.001822
vt 0.990210 0.455392
vt 0.462140 0.001822
vt 0.915709 0.001822
vt 0.915709 0.874072
vt 0.462140 0.874072
vt 0.980563 0.912953
vt 0.980563 0.459384
vt 0.998008 0.459384
vt 0.998008 0.912953
vt 0.922092 0.001822
vt 0.939537 0.001822
vt 0.939537 0.874072
vt 0.922092 0.874072
vt 0.947429 0.001822
vt 0.964874 0.001822
vt 0.964874 0.874072
vt 0.947429 0.874072
vn 0.000000 0.000000 1.000000
vn 0.000000 0.000000 1.000000
vn 0.000000 0.000000 1.000000
vn 0.000000 0.000000 1.000000
vn 0.000000 1.000000 0.000000
vn 0.000000 1.000000 0.000000
vn 0.000000 1.000000 0.000000
vn 0.000000 1.000000 0.000000
vn 0.000000 0.000000 -1.000000
vn 0.000000 0.000000 -1.000000
vn 0.000000 0.000000 -1.000000
vn 0.000000 0.000000 -1.000000
vn 0.000000 -1.000000 0.000000
vn 0.000000 -1.000000 0.000000
vn 0.000000 -1.000000 0.000000
vn 0.000000 -1.000000 0.000000
vn 1.000000 0.000000 0.000000
vn 1.000000 0.000000 0.000000
vn 1.000000 0.000000 0.000000
vn 1.000000 0.000000 0.000000
vn -1.000000 0.000000 0.000000
vn -1.000000 0.000000 0.000000
vn -1.000000 0.000000 0.000000
vn -1.000000 0.000000 0.000000
s off
g pCube1
usemtl lambert2SG
f 1/1/1 2/2/2 4/3/3 3/4/4
f 3/5/5 4/6/6 6/7/7 5/8/8
f 5/9/9 6/10/10 8/11/11 7/12/12
f 7/13/13 8/14/14 2/15/15 1/16/16
f 2/17/17 8/18/18 6/19/19 4/20/20
f 7/21/21 1/22/22 3/23/23 5/24/24
